<svg xmlns="http://www.w3.org/2000/svg" width="50" height="50" viewBox="0 0 50 50">
  <g id="Grupo_21" data-name="Grupo 21" transform="translate(866 -1195)">
    <circle id="Elipse_2" data-name="Elipse 2" cx="25" cy="25" r="25" transform="translate(-866 1195)" fill="none"/>
    <path id="eye-off-fill" d="M6.689,8.886,1.532,3.727,3.865,1.394,36.532,34.059,34.2,36.394l-5.461-5.461A18.157,18.157,0,0,1,1.182,18.893,18.12,18.12,0,0,1,6.689,8.886Zm16.892,16.89-2.415-2.415a4.95,4.95,0,0,1-6.6-6.6l-2.416-2.415A8.25,8.25,0,0,0,23.581,25.777ZM12.388,5.3a18.166,18.166,0,0,1,24.493,13.6,18.062,18.062,0,0,1-3.32,7.578L27.193,20.1a8.25,8.25,0,0,0-9.372-9.372L12.39,5.3Z" transform="translate(-859.182 1200.606)" fill="#05f"/>
  </g>
</svg>
